<?xml version="1.0" encoding="utf-8"?>
<!-- Generator: Adobe Illustrator 16.0.0, SVG Export Plug-In . SVG Version: 6.00 Build 0)  -->
<!DOCTYPE svg PUBLIC "-//W3C//DTD SVG 1.1//EN" "http://www.w3.org/Graphics/SVG/1.1/DTD/svg11.dtd">
<svg version="1.1" id="Layer_1" xmlns="http://www.w3.org/2000/svg" xmlns:xlink="http://www.w3.org/1999/xlink" x="0px" y="0px"
	 width="100px" height="100px" viewBox="0 0 100 100" enable-background="new 0 0 100 100" xml:space="preserve">
<path fill="#1a1a1a" fill-rule="evenodd" clip-rule="evenodd" d="M135.289,79.591l-15.648,15.648c-0.393,0.394-1.029,0.394-1.422,0l-0.316-0.315
	v0.001l-0.342-0.344l-1.477-1.476c-0.01-0.01-0.012-0.022-0.021-0.033l-6.768-6.816c-0.393-0.394-0.393-1.03,0-1.424l2.133-2.133
	c0.395-0.394,1.031-0.394,1.424,0l6.086,6.131l12.795-12.795c0.393-0.394,1.029-0.394,1.424,0l2.133,2.133
	C135.682,78.561,135.682,79.198,135.289,79.591z"/>
<path fill="#1a1a1a" fill-rule="evenodd" clip-rule="evenodd" d="M68.063,99.115L21.082,52.132c-1.182-1.179-1.182-3.09,0-4.269l0.944-0.951l0,0
	l1.033-1.026l4.427-4.434c0.029-0.029,0.07-0.034,0.1-0.063L68.24,0.883c1.179-1.179,3.091-1.179,4.272,0l6.407,6.406
	c1.178,1.182,1.178,3.093,0,4.271l-38.595,38.46L78.74,88.437c1.181,1.179,1.181,3.091,0,4.275l-6.406,6.403
	C71.154,100.294,69.242,100.294,68.063,99.115z"/>
<path fill="#1a1a1a" fill-rule="evenodd" clip-rule="evenodd" d="M125.879,114.522l6.096,6.097c0.396,0.396,0.396,1.038,0,1.434l-2.152,2.152
	c-0.396,0.396-1.037,0.396-1.434,0l-6.098-6.097l-6.096,6.097c-0.396,0.396-1.039,0.396-1.434,0l-2.152-2.152
	c-0.396-0.396-0.396-1.037,0-1.434l6.096-6.097l-6.096-6.097c-0.396-0.396-0.396-1.038,0-1.434l2.152-2.152
	c0.395-0.396,1.037-0.396,1.434,0l6.096,6.097l6.098-6.097c0.396-0.396,1.037-0.396,1.434,0l2.152,2.152
	c0.396,0.396,0.396,1.037,0,1.434L125.879,114.522z"/>
<line fill="none" x1="131.5" y1="46.5" x2="94.5" y2="46.5"/>
</svg>
