<?xml version="1.0" encoding="utf-8"?>
<!-- Generator: Adobe Illustrator 16.0.0, SVG Export Plug-In . SVG Version: 6.00 Build 0)  -->
<!DOCTYPE svg PUBLIC "-//W3C//DTD SVG 1.1//EN" "http://www.w3.org/Graphics/SVG/1.1/DTD/svg11.dtd">
<svg version="1.1" id="Layer_1" xmlns="http://www.w3.org/2000/svg" xmlns:xlink="http://www.w3.org/1999/xlink" x="0px" y="0px"
	 width="100px" height="100px" viewBox="0 0 100 100" enable-background="new 0 0 100 100" xml:space="preserve">
<g>
	<g>
		<path fill-rule="evenodd" clip-rule="evenodd" fill="#333" d="M59.521,62.962c0,0-4.757,6.072-10.83,0
			c-5.894-5.715-10.178,0-10.178,0l-14.195,27.98c-0.412,1.525,0.494,3.091,2.017,3.497h47.149c1.521-0.406,2.426-1.972,2.018-3.497
			L59.521,62.962z M81.267,89.511L58.463,51.132l-0.002-0.069l-0.04-22.493h1.576c2.362,0,4.279-1.913,4.279-4.279
			s-1.917-4.282-4.279-4.282h-22.85c-2.365,0-4.281,1.916-4.281,4.282s1.916,4.279,4.281,4.279h1.379l-0.045,22.498L18.732,89.511
			C17.51,94.079,20.22,98.777,24.788,100h50.421C79.779,98.777,82.491,94.079,81.267,89.511z M74.441,97.137l-48.894-0.054
			c-3.045-0.816-4.85-3.949-4.036-6.991l19.855-38.916l0.061-25.458h-4.281c-0.787,0-1.427-0.642-1.427-1.428
			c0-0.789,0.64-1.429,1.427-1.429h22.85c0.785,0,1.425,0.64,1.425,1.429c0,0.786-0.64,1.428-1.425,1.428h-4.283l0.076,25.366
			l22.688,39.057C79.295,93.19,77.486,96.32,74.441,97.137z M51.371,15.721c0,1.578,1.278,2.856,2.859,2.856
			c1.578,0,2.857-1.278,2.857-2.856c0-1.579-1.279-2.858-2.857-2.858C52.649,12.862,51.371,14.142,51.371,15.721z M54.23,8.575
			c2.366,0,4.287-1.92,4.287-4.288C58.518,1.92,56.597,0,54.23,0c-2.368,0-4.289,1.92-4.289,4.287
			C49.941,6.655,51.862,8.575,54.23,8.575z M42.798,15.721c1.579,0,2.856-1.278,2.856-2.858s-1.277-2.858-2.856-2.858
			c-1.58,0-2.859,1.278-2.859,2.858S41.218,15.721,42.798,15.721z"/>
	</g>
</g>
</svg>
