<?xml version="1.0" encoding="utf-8"?>
<!-- Generator: Adobe Illustrator 16.0.0, SVG Export Plug-In . SVG Version: 6.00 Build 0)  -->
<!DOCTYPE svg PUBLIC "-//W3C//DTD SVG 1.1//EN" "http://www.w3.org/Graphics/SVG/1.1/DTD/svg11.dtd">
<svg version="1.1" id="Layer_1" xmlns="http://www.w3.org/2000/svg" xmlns:xlink="http://www.w3.org/1999/xlink" x="0px" y="0px"
	 width="100px" height="100px" viewBox="0 0 100 100" enable-background="new 0 0 100 100" xml:space="preserve">
<g>
	<path fill="#FFFFFF" d="M38.528,50.178c-1.502,0-2.405,1.003-2.405,2.468c0,1.463,0.902,2.466,2.405,2.466
		c1.504,0,2.407-1.003,2.407-2.466C40.935,51.182,40.033,50.178,38.528,50.178z"/>
	<path fill="#FFFFFF" d="M64.078,50.178c-1.506,0-2.408,1.003-2.408,2.468c0,1.463,0.902,2.466,2.408,2.466
		c1.502,0,2.404-1.003,2.404-2.466C66.482,51.182,65.579,50.178,64.078,50.178z"/>
	<path fill="#FFFFFF" d="M99.845,56.562l-1.771-8.417c-0.519-2.465-1.035-6.54-1.146-9.057l-0.38-8.593
		c-0.109-2.517-1.822-5.847-3.804-7.402l-6.766-5.308c-1.981-1.555-4.997-4.345-6.699-6.201l-5.813-6.335
		c-1.705-1.857-5.156-3.307-7.675-3.224l-8.591,0.281c-2.518,0.083-6.621-0.118-9.118-0.444l-8.528-1.121
		c-2.497-0.327-6.075,0.781-7.95,2.462l-6.402,5.738c-1.876,1.682-5.149,4.165-7.271,5.521l-7.248,4.624
		c-2.123,1.355-4.151,4.504-4.507,6.997l-1.215,8.514c-0.355,2.493-1.265,6.499-2.02,8.901l-2.58,8.204
		c-0.758,2.402-0.287,6.115,1.043,8.256l4.541,7.299c1.331,2.139,3.208,5.792,4.174,8.117l3.296,7.944
		c0.967,2.327,3.715,4.873,6.109,5.656l8.166,2.673c2.396,0.786,6.182,2.376,8.417,3.538l7.632,3.966
		c2.233,1.161,5.975,1.346,8.312,0.404l7.979-3.204c2.336-0.937,6.262-2.151,8.721-2.698l8.395-1.864
		c2.457-0.547,5.441-2.809,6.629-5.032l4.052-7.584c1.188-2.223,3.411-5.672,4.942-7.672l5.232-6.824
		C99.535,62.68,100.364,59.027,99.845,56.562z M28.021,57.88c-4.431,0-7.659-2.907-7.659-7.459c0-4.55,3.228-7.458,7.659-7.458
		c1.583,0,3.589,0.541,4.792,2.085l-2.405,1.965c-0.622-0.743-1.526-1.165-2.688-1.165c-2.367,0-4.111,1.924-4.111,4.571
		c0,2.646,1.745,4.573,4.011,4.573c1.262,0,2.285-0.562,2.927-1.525l2.608,1.945C31.97,57.1,29.966,57.88,28.021,57.88z
		 M38.528,57.758c-3.007,0-5.412-2.005-5.412-5.111c0-3.108,2.405-5.114,5.412-5.114c3.007,0,5.415,2.006,5.415,5.114
		C43.943,55.753,41.536,57.758,38.528,57.758z M58.5,50.5L58.5,50.5h-3v2.93c0,1.042,0.298,1.801,1.604,1.801
		c0.318,0,1.396-0.037,1.396-0.279v2.506c-1,0.24-1.576,0.301-2.277,0.301c-2.004,0-3.723-0.821-3.723-2.947V50.5h-1.105l0,0H48.5
		v2.93c0,1.042,0.297,1.801,1.599,1.801c0.321,0,1.401-0.037,1.401-0.279v2.506c-1,0.24-1.577,0.301-2.28,0.301
		c-2.003,0-3.72-0.821-3.72-2.947V50.5h-2v-3h2v-3h3v3h2.423h0.418H52.5v-3h3v3h3V50.5z M64.078,57.758
		c-3.011,0-5.414-2.005-5.414-5.111c0-3.108,2.403-5.114,5.414-5.114c3.006,0,5.412,2.006,5.412,5.114
		C69.49,55.753,67.084,57.758,64.078,57.758z M79.5,57.5h-3v-4.754c0-1.123-0.337-2.566-1.881-2.566
		c-1.563,0-2.119,1.223-2.119,2.486V57.5h-3v-10h3v2h0.68c0.401-1,1.318-1.766,2.779-1.766c3.047,0,3.541,1.804,3.541,4.413V57.5z"
		/>
</g>
</svg>
