<?xml version="1.0" encoding="utf-8"?>
<!-- Generator: Adobe Illustrator 16.0.0, SVG Export Plug-In . SVG Version: 6.00 Build 0)  -->
<!DOCTYPE svg PUBLIC "-//W3C//DTD SVG 1.1//EN" "http://www.w3.org/Graphics/SVG/1.1/DTD/svg11.dtd">
<svg version="1.1" id="Layer_1" xmlns="http://www.w3.org/2000/svg" xmlns:xlink="http://www.w3.org/1999/xlink" x="0px" y="0px"
	 width="100px" height="100px" viewBox="0 0 100 100" enable-background="new 0 0 100 100" xml:space="preserve">
<path fill-rule="evenodd" clip-rule="evenodd" fill="#FFFFFF" d="M99.117,31.938L52.134,78.921c-1.182,1.178-3.092,1.178-4.273,0
	l-0.946-0.949l-0.003,0.006l-1.025-1.031l-4.432-4.435c-0.03-0.03-0.036-0.064-0.067-0.097L0.883,31.757
	c-1.178-1.178-1.178-3.091,0-4.272l6.403-6.406c1.184-1.178,3.095-1.178,4.273,0l38.462,38.598l38.421-38.42
	c1.178-1.178,3.088-1.178,4.269,0l6.406,6.409C100.295,28.843,100.295,30.76,99.117,31.938z"/>
</svg>
