<?xml version="1.0" encoding="utf-8"?>
<!-- Generator: Adobe Illustrator 16.0.0, SVG Export Plug-In . SVG Version: 6.00 Build 0)  -->
<!DOCTYPE svg PUBLIC "-//W3C//DTD SVG 1.1//EN" "http://www.w3.org/Graphics/SVG/1.1/DTD/svg11.dtd">
<svg version="1.1" id="Layer_1" xmlns="http://www.w3.org/2000/svg" xmlns:xlink="http://www.w3.org/1999/xlink" x="0px" y="0px"
	 width="200px" height="100px" viewBox="-50 0 200 100" enable-background="new -50 0 200 100" xml:space="preserve">
<g>
	<g>
		<path fill="#fff" d="M-11.628,39.273c-1.956-2.334-4.799-3.664-8.455-3.664c-7.444,0-12.933,6.054-12.933,14.381
			c0,8.324,5.488,14.383,12.617,14.383c3.972,0,7.188-1.767,9.21-4.794l8.2,6.123c-3.725,5.306-10.03,7.763-16.146,7.763
			c-13.939,0-24.094-9.149-24.094-23.467c0-14.312,10.154-23.463,24.094-23.463c4.979,0,11.288,1.704,15.071,6.561L-11.628,39.273z"
			/>
		<path fill="#fff" d="M13.917,40.91c9.458,0,17.031,6.309,17.031,16.085c0,9.773-7.573,16.079-17.031,16.079
			c-9.459,0-17.026-6.306-17.026-16.079C-3.109,47.218,4.458,40.91,13.917,40.91z M13.917,64.755c4.729,0,7.569-3.156,7.569-7.76
			c0-4.608-2.84-7.765-7.569-7.765c-4.728,0-7.567,3.156-7.567,7.765C6.35,61.599,9.189,64.755,13.917,64.755z"/>
		<path fill="#fff" d="M54.223,49.236h-8.323v10.222c0,3.278,0.378,5.665,4.471,5.665c1.013,0,3.032-0.12,3.853-0.875v7.879
			c-2.085,0.759-4.415,0.944-6.625,0.944c-6.303,0-11.159-2.584-11.159-9.273V49.23h-6.057v-7.569h6.057v-9.083h9.458v9.083h8.321
			v7.572h0.005V49.236z"/>
		<path fill="#fff" d="M76.736,49.236h-8.325v10.222c0,3.278,0.383,5.665,4.487,5.665c1.002,0,3.027-0.12,3.838-0.875v7.879
			c-2.072,0.759-4.411,0.944-6.617,0.944c-6.303,0-11.162-2.584-11.162-9.273V49.23h-6.054v-7.569h6.054v-9.083h9.46v9.083h8.325
			v7.572h-0.006V49.236z"/>
		<path fill="#fff" d="M94.282,40.91c9.459,0,17.026,6.309,17.026,16.085c0,9.773-7.567,16.079-17.026,16.079
			c-9.467,0-17.028-6.306-17.028-16.079C77.254,47.218,84.815,40.91,94.282,40.91z M94.282,64.755c4.727,0,7.566-3.156,7.566-7.76
			c0-4.608-2.845-7.765-7.566-7.765c-4.734,0-7.572,3.156-7.572,7.765C86.71,61.599,89.548,64.755,94.282,64.755z"/>
		<path fill="#fff" d="M113.709,41.667h9.082v4.166h0.124c1.261-2.401,4.36-4.922,8.959-4.922c9.586,0,11.354,6.309,11.354,14.512v16.899h-9.458
			V57.31c0-3.533-0.068-8.074-4.923-8.074c-4.921,0-5.678,3.848-5.678,7.823v15.263h-9.46V41.667L113.709,41.667z"/>
	</g>
</g>
</svg>
