<svg xmlns="http://www.w3.org/2000/svg" xmlns:xlink="http://www.w3.org/1999/xlink" version="1.1" x="0px" y="0px" width="100px" height="100px" viewBox="0 0 100 100" enable-background="new 0 0 100 100" xml:space="preserve">
<g id="Captions">
</g>
<g id="Your_Icon">
	<path fill="#333" d="M26.087,28.805c-7.192,0-13.043,5.851-13.043,13.043s5.851,13.043,13.043,13.043s13.044-5.851,13.044-13.043   S33.279,28.805,26.087,28.805z M91.305,19.565H56.777c-4.674,0-8.476,3.691-8.677,8.315c-1.453-2.28-3.244-4.324-5.312-6.052v-4.98   c0-4.802-3.894-8.696-8.695-8.696H17.392c-4.803,0-8.696,3.894-8.696,8.696v5.577C3.362,27.205,0,34.14,0,41.848   s3.362,14.643,8.695,19.422v21.882c0,4.802,3.894,8.695,8.696,8.695h16.702c4.802,0,8.695-3.894,8.695-8.695V61.867   c2.11-1.764,3.937-3.854,5.404-6.192c0.642,4.171,4.234,7.369,8.584,7.369h34.527c4.802,0,8.695-3.894,8.695-8.696V28.261   C100,23.459,96.106,19.565,91.305,19.565z M34.094,85.327H17.391c-1.802,0-3.262-1.459-3.262-3.261s1.46-3.261,3.262-3.261h16.703   c1.802,0,3.261,1.459,3.261,3.261S35.896,85.327,34.094,85.327z M45.563,43.604c-0.017,0.182-0.036,0.362-0.058,0.542   c-0.049,0.416-0.112,0.828-0.189,1.236c-0.04,0.218-0.076,0.437-0.125,0.653c-0.096,0.433-0.206,0.859-0.329,1.282   c-0.091,0.315-0.196,0.624-0.304,0.934c-0.055,0.155-0.111,0.31-0.17,0.463c-0.431,1.149-0.966,2.245-1.596,3.279L42.789,52   c-3.434,5.637-9.619,9.413-16.702,9.413c-8.305,0-15.383-5.182-18.224-12.482c-0.087-0.222-0.165-0.445-0.244-0.67   c-0.122-0.35-0.235-0.702-0.337-1.062C7.182,46.852,7.091,46.5,7.01,46.145c-0.043-0.193-0.087-0.384-0.125-0.58   c-0.1-0.512-0.179-1.031-0.237-1.556c-0.015-0.131-0.024-0.261-0.036-0.393c-0.054-0.583-0.09-1.17-0.09-1.768   s0.036-1.186,0.09-1.769c0.012-0.132,0.021-0.262,0.036-0.393c0.059-0.525,0.138-1.045,0.237-1.556   c0.038-0.195,0.082-0.387,0.125-0.58c0.081-0.354,0.172-0.707,0.272-1.054c0.102-0.36,0.215-0.712,0.337-1.062   c0.079-0.225,0.157-0.449,0.244-0.67c2.841-7.301,9.919-12.483,18.224-12.483c7.083,0,13.269,3.777,16.702,9.413l0.004,0.006   c0.63,1.035,1.165,2.13,1.596,3.279c0.059,0.154,0.115,0.309,0.17,0.464c0.107,0.31,0.213,0.619,0.304,0.934   c0.123,0.422,0.233,0.849,0.329,1.282c0.049,0.215,0.085,0.434,0.125,0.653c0.077,0.408,0.141,0.819,0.189,1.235   c0.021,0.181,0.041,0.361,0.058,0.542c0.053,0.579,0.089,1.162,0.089,1.756C45.652,42.441,45.616,43.024,45.563,43.604z"/>
</g>
</svg>